<?xml version="1.0" encoding="utf-8"?>
<!-- Generator: Adobe Illustrator 19.0.0, SVG Export Plug-In . SVG Version: 6.00 Build 0)  -->
<svg version="1.1" id="Layer_1" xmlns="http://www.w3.org/2000/svg" xmlns:xlink="http://www.w3.org/1999/xlink" x="0px" y="0px"
	 viewBox="0 0 100 100" style="enable-background:new 0 0 100 100;" xml:space="preserve">
<style type="text/css">
	.st0{fill:#FFFFFF;stroke:#000000;stroke-width:3;stroke-miterlimit:10;}
</style>
<g id="XMLID_7_">
	<path id="XMLID_2_" class="st0" d="M45.4,8c0,0,12.4-2.6,24.1,7.8s19.6,20.9,19.6,20.9v15.7v7.8c0,0-5.9,7.2-5.9,11.1
		s-0.7,10.4-0.7,10.4l-5.9,5.2l-5.2,7.8l-4.2-7.2l-6.9-3.9l-3.9,5.9L45.4,76.5l-17-11.1l-5.2-2c0,0-7.8,0.7-8.5-3.3
		c-0.7-3.9-3.3-22.8-3.3-22.8s7.2-17,6.5-19.6S36.9,7.7,36.9,7.7L45.4,8z"/>
	<path id="XMLID_3_" d="M75.4,54.7c0,0-18.9,3.3-20.2,9.1c-1.3,5.9,10.1,2.6,10.1,2.6l10.1-2.6V54.7z"/>
</g>
</svg>
