<?xml version="1.0" encoding="utf-8"?>
<!-- Generator: Adobe Illustrator 19.0.0, SVG Export Plug-In . SVG Version: 6.00 Build 0)  -->
<svg version="1.1" id="Layer_1" xmlns="http://www.w3.org/2000/svg" xmlns:xlink="http://www.w3.org/1999/xlink" x="0px" y="0px"
	 viewBox="0 0 612 792" style="enable-background:new 0 0 612 792;" xml:space="preserve">
<style type="text/css">
	.st0{fill:#FFFFFF;stroke:#000000;stroke-width:3;stroke-miterlimit:10;}
</style>
<g id="XMLID_7_">
	<path id="XMLID_2_" class="st0" d="M293.9,357.3c0,0,11.1-2.3,21.6,7C326,373.7,333,383,333,383v14v7c0,0-5.3,6.4-5.3,9.9
		s-0.6,9.3-0.6,9.3l-5.3,4.7l-4.7,7l-3.8-6.4l-6.1-3.5l-3.5,5.3l-9.9-11.7l-15.2-9.9l-4.7-1.8c0,0-7,0.6-7.6-2.9s-2.9-20.4-2.9-20.4
		s6.4-15.2,5.8-17.5c-0.6-2.3,16.9-9,16.9-9L293.9,357.3z"/>
	<path id="XMLID_3_" d="M320.7,399.1c0,0-16.9,2.9-18.1,8.2c-1.2,5.3,9,2.3,9,2.3l9-2.3V399.1z"/>
</g>
</svg>
