<?xml version="1.0" encoding="utf-8"?>
<!-- Generator: Adobe Illustrator 19.0.0, SVG Export Plug-In . SVG Version: 6.00 Build 0)  -->
<svg version="1.1" id="Layer_1" xmlns="http://www.w3.org/2000/svg" xmlns:xlink="http://www.w3.org/1999/xlink" x="0px" y="0px"
	 viewBox="0 0 100 100" style="enable-background:new 0 0 100 100;" xml:space="preserve">
<style type="text/css">
	.st0{fill:#FFFFFF;stroke:#000000;stroke-width:3;stroke-miterlimit:10;}
</style>
<g id="XMLID_1_">
	<path id="XMLID_2_" class="st0" d="M45.43,7.97c0,0,12.4-2.61,24.14,7.83s19.58,20.88,19.58,20.88v15.66v7.83
		c0,0-5.87,7.18-5.87,11.09s-0.65,10.44-0.65,10.44l-5.87,5.22l-5.22,7.83l-4.24-7.18l-6.85-3.92l-3.92,5.87L45.43,76.49
		L28.47,65.39l-5.22-1.96c0,0-7.83,0.65-8.48-3.26c-0.65-3.92-3.26-22.84-3.26-22.84s7.18-16.97,6.53-19.58S36.95,7.68,36.95,7.68
		L45.43,7.97z"/>
	<path id="XMLID_3_" d="M73.32,55.08c-3.3-0.95-17.77,7.21-18.1,8.72c-1.31,5.87,10.11,2.61,10.11,2.61L74.42,63L75,57.17
		C75,57.17,74.33,55.37,73.32,55.08z"/>
</g>
</svg>
